<svg width="128" height="80" viewBox="0 0 128 80" fill="none" xmlns="http://www.w3.org/2000/svg">
<rect width="128" height="80" rx="12" fill="#246EA9"/>
<path fill-rule="evenodd" clip-rule="evenodd" d="M24.8022 61.4357V42.6352H46.0895L48.3733 45.4195L50.7327 42.6352H128V60.1391C128 60.1391 125.979 61.417 123.642 61.4357H80.8578L78.2828 58.4722V61.4357H69.8448V56.3767C69.8448 56.3767 68.6921 57.0829 66.2003 57.0829H63.3281V61.4357H50.5521L48.2715 58.5918L45.9559 61.4357H24.8022ZM0 28.4654L4.78945 18H13.0723L15.7904 23.8623V18H26.0867L27.705 22.237L29.2735 18H75.4935V20.1301C75.4935 20.1301 77.9233 18 81.9165 18L96.9133 18.0491L99.5843 23.8347V18H108.201L110.572 21.3232V18H119.268V36.8006H110.572L108.3 33.4666V36.8006H95.6402L94.3669 33.8369H90.9636L89.7113 36.8006H81.126C77.6899 36.8006 75.4935 34.7138 75.4935 34.7138V36.8006H62.5491L59.9798 33.8369V36.8006H11.8453L10.5731 33.8369H7.18058L5.91734 36.8006H0V28.4654ZM0.0247036 34.3949L6.48464 20.3178H11.3821L17.8358 34.3949H13.5375L12.3517 31.5761H5.42241L4.23045 34.3949H0.0247036ZM10.9868 28.5199L8.87469 23.5938L6.75637 28.5199H10.9868ZM18.2805 34.3926V20.3152L24.2572 20.3362L27.7333 29.4122L31.1262 20.3152H37.0551V34.3926H33.3002V24.0199L29.3198 34.3926H26.0269L22.0355 24.0199V34.3926H18.2805ZM39.6243 34.3926V20.3152H51.8772V23.4641H43.4187V25.8722H51.6795V28.8357H43.4187V31.3364H51.8772V34.3926H39.6243ZM54.051 34.3949V20.3178H62.4071C65.1756 20.3178 67.6564 21.9223 67.6564 24.8847C67.6564 27.4172 65.5649 29.0482 63.5372 29.2085L68.4779 34.3949H63.8893L59.3869 29.3939H57.8058V34.3949H54.051ZM62.0981 23.4667H57.8058V26.4302H62.1539C62.9064 26.4302 63.8767 25.8836 63.8767 24.9484C63.8767 24.2215 63.1278 23.4667 62.0981 23.4667ZM73.0232 34.3926H69.1893V20.3152H73.0232V34.3926ZM82.1142 34.3926H81.2865C77.2824 34.3926 74.8513 31.4359 74.8513 27.4119C74.8513 23.2883 77.2552 20.3152 82.3117 20.3152H86.462V23.6495H82.1601C80.1073 23.6495 78.6557 25.1509 78.6557 27.4466C78.6557 30.1729 80.3155 31.3179 82.7069 31.3179H83.695L82.1142 34.3926ZM83.8247 34.3949L90.2846 20.3178H95.1822L101.636 34.3949H97.3375L96.1518 31.5761H89.2225L88.0305 34.3949H83.8247ZM94.787 28.5199L92.6748 23.5938L90.5565 28.5199H94.787ZM102.075 34.3926V20.3152H106.848L112.944 29.1599V20.3152H116.699V34.3926H112.079L105.829 25.3165V34.3926H102.075ZM27.3714 59.0279V44.9505H39.6243V48.0994H31.1657V50.5075H39.4266V53.471H31.1657V55.9717H39.6243V59.0279H27.3714ZM87.4106 59.0279V44.9505H99.6633V48.0994H91.205V50.5075H99.4263V53.471H91.205V55.9717H99.6633V59.0279H87.4106ZM40.0999 59.0279L46.0657 52.076L39.9576 44.9505H44.6885L48.326 49.3554L51.9759 44.9505H56.5214L50.4936 51.9892L56.4707 59.0279H51.7407L48.2087 54.6924L44.7625 59.0279H40.0999ZM56.9166 59.0302V44.953H65.2107C68.614 44.953 70.6024 47.0088 70.6024 49.6878C70.6024 52.9219 68.0674 54.5847 64.7228 54.5847H60.7703V59.0302H56.9166ZM64.9329 48.1364H60.7703V51.378H64.9206C66.0171 51.378 66.7857 50.6967 66.7857 49.7572C66.7857 48.7572 66.0133 48.1364 64.9329 48.1364ZM72.2328 59.0279V44.9505H80.5886C83.3573 44.9505 85.8382 46.5551 85.8382 49.5175C85.8382 52.0499 83.7466 53.681 81.7187 53.8415L86.6595 59.0279H82.0708L77.5687 54.0267H75.9876V59.0279H72.2328ZM80.2799 48.0994H75.9876V51.0629H80.3354C81.0881 51.0629 82.0585 50.5166 82.0585 49.5812C82.0585 48.8542 81.3096 48.0994 80.2799 48.0994ZM101.403 59.0279V55.9717H108.917C110.029 55.9717 110.511 55.4084 110.511 54.7908C110.511 54.1991 110.031 53.6006 108.917 53.6006H105.521C102.57 53.6006 100.926 51.915 100.926 49.3844C100.926 47.1273 102.431 44.9505 106.818 44.9505H114.13L112.549 48.1179H106.225C105.016 48.1179 104.643 48.7125 104.643 49.2803C104.643 49.8638 105.104 50.5075 106.027 50.5075H109.584C112.875 50.5075 114.303 52.2568 114.303 54.5477C114.303 57.0105 112.712 59.0279 109.405 59.0279H101.403ZM114.634 59.0279V55.9717H122.148C123.26 55.9717 123.742 55.4084 123.742 54.7908C123.742 54.1991 123.262 53.6006 122.148 53.6006H118.753C115.801 53.6006 114.157 51.915 114.157 49.3844C114.157 47.1273 115.662 44.9505 120.049 44.9505H127.361L125.78 48.1179H119.456C118.247 48.1179 117.875 48.7125 117.875 49.2803C117.875 49.8638 118.335 50.5075 119.258 50.5075H122.815C126.106 50.5075 127.534 52.2568 127.534 54.5477C127.534 57.0105 125.943 59.0279 122.636 59.0279H114.634Z" fill="white"/>
<path d="M77.4984 16.9004H73.8984V31.6004H77.4984V16.9004Z" fill="#246EA9"/>
</svg>
