<svg xmlns="http://www.w3.org/2000/svg" width="64" height="65" viewBox="0 0 64 65" fill="none">
  <mask id="mask0_9237_77911" style="mask-type:luminance" maskUnits="userSpaceOnUse" x="4" y="4" width="56" height="57">
    <path d="M31.9987 59.1664C35.5013 59.1707 38.9701 58.4829 42.2061 57.1425C45.442 55.8021 48.3812 53.8355 50.8547 51.3557C53.3345 48.8821 55.3011 45.943 56.6415 42.707C57.9819 39.4711 58.6697 36.0022 58.6654 32.4997C58.6697 28.9971 57.9819 25.5283 56.6415 22.2923C55.3011 19.0564 53.3345 16.1173 50.8547 13.6437C48.3812 11.1639 45.442 9.19732 42.2061 7.85691C38.9701 6.51651 35.5013 5.82871 31.9987 5.83303C28.4962 5.82871 25.0273 6.51651 21.7914 7.85691C18.5555 9.19732 15.6163 11.1639 13.1427 13.6437C10.6629 16.1173 8.69634 19.0564 7.35594 22.2923C6.01553 25.5283 5.32773 28.9971 5.33205 32.4997C5.32773 36.0022 6.01553 39.4711 7.35594 42.707C8.69634 45.943 10.6629 48.8821 13.1427 51.3557C15.6163 53.8355 18.5555 55.8021 21.7914 57.1425C25.0273 58.4829 28.4962 59.1707 31.9987 59.1664Z" fill="white" stroke="white" stroke-width="2" stroke-linejoin="round"/>
    <path d="M21.332 32.5L29.332 40.5L45.332 24.5" stroke="black" stroke-width="2" stroke-linecap="round" stroke-linejoin="round"/>
  </mask>
  <g mask="url(#mask0_9237_77911)">
    <path d="M0 0.5H64V64.5H0V0.5Z" fill="#14B570"/>
  </g>
</svg>