<svg class="formgent-svg-fill-only" xmlns="http://www.w3.org/2000/svg" width="24" height="24" viewBox="0 0 24 24" fill="none">
  <path fill-rule="evenodd" clip-rule="evenodd" d="M11 20C11 19.4477 11.4477 19 12 19H21C21.5523 19 22 19.4477 22 20C22 20.5523 21.5523 21 21 21H12C11.4477 21 11 20.5523 11 20Z" fill="black"/>
  <path fill-rule="evenodd" clip-rule="evenodd" d="M17.877 4.00024C17.5792 4.00024 17.2936 4.11853 17.0831 4.32909L5.07208 16.3401C4.95326 16.4588 4.86607 16.6058 4.81895 16.7671C4.81893 16.7671 4.81897 16.767 4.81895 16.7671L4.23641 18.7635L6.23287 18.181C6.39439 18.134 6.54193 18.0468 6.66088 17.9279L18.6708 5.9169C18.8814 5.70635 18.9997 5.42075 18.9997 5.12298C18.9997 4.82521 18.8814 4.53964 18.6709 4.32909C18.4603 4.11853 18.1747 4.00024 17.877 4.00024ZM15.6689 2.91487C16.2545 2.32925 17.0488 2.00024 17.877 2.00024C18.7052 2.00024 19.4995 2.32925 20.0851 2.91487C20.6707 3.5005 20.9997 4.29478 20.9997 5.12298C20.9997 5.95118 20.6707 6.74546 20.0851 7.33109L8.07511 19.3421C7.71838 19.6988 7.27742 19.9598 6.79308 20.101C6.79291 20.101 6.79325 20.1009 6.79308 20.101L3.92108 20.9389C3.66293 21.0142 3.38919 21.0188 3.12871 20.952C2.86823 20.8853 2.63046 20.7498 2.44032 20.5596C2.25017 20.3695 2.11464 20.1317 2.04791 19.8713C1.98117 19.6108 1.98568 19.3371 2.06098 19.079L2.89901 16.2069C3.04031 15.723 3.30134 15.2823 3.65787 14.9259C3.6578 14.9259 3.65793 14.9258 3.65787 14.9259L15.6689 2.91487Z" fill="black"/>
  <path fill-rule="evenodd" clip-rule="evenodd" d="M14.2929 4.29289C14.6834 3.90237 15.3166 3.90237 15.7071 4.29289L18.7071 7.29289C19.0976 7.68342 19.0976 8.31658 18.7071 8.70711C18.3166 9.09763 17.6834 9.09763 17.2929 8.70711L14.2929 5.70711C13.9024 5.31658 13.9024 4.68342 14.2929 4.29289Z" fill="black"/>
</svg>