<svg xmlns="http://www.w3.org/2000/svg" width="64" height="65" viewBox="0 0 64 65" fill="none">
  <path d="M61.699 31.398L47.775 7.564C47.5869 7.24057 47.3173 6.97212 46.993 6.78543C46.6687 6.59873 46.3012 6.50032 45.927 6.5H18.071C17.6972 6.50067 17.3301 6.59925 17.0062 6.78592C16.6823 6.9726 16.413 7.24086 16.225 7.564L2.29904 31.4C2.10322 31.7342 2 32.1146 2 32.502C2 32.8894 2.10322 33.2698 2.29904 33.604L16.227 57.438C16.415 57.7611 16.6843 58.0294 17.0082 58.2161C17.3321 58.4028 17.6992 58.5013 18.073 58.502H45.929C46.3029 58.5013 46.67 58.4028 46.9939 58.2161C47.3178 58.0294 47.5871 57.7611 47.775 57.438L61.699 33.6C61.8949 33.2658 61.9981 32.8854 61.9981 32.498C61.9981 32.1106 61.8949 31.7302 61.699 31.396M29.751 16.5H34.251V38.5H29.751V16.5ZM31.999 50.5C31.4057 50.5 30.8257 50.3241 30.3323 49.9944C29.839 49.6648 29.4545 49.1962 29.2274 48.648C29.0003 48.0999 28.9409 47.4967 29.0567 46.9147C29.1724 46.3328 29.4582 45.7982 29.8777 45.3787C30.2973 44.9591 30.8318 44.6734 31.4138 44.5576C31.9957 44.4419 32.5989 44.5013 33.1471 44.7284C33.6953 44.9554 34.1638 45.3399 34.4935 45.8333C34.8231 46.3266 34.999 46.9067 34.999 47.5C34.999 48.2957 34.683 49.0587 34.1204 49.6213C33.5578 50.1839 32.7947 50.5 31.999 50.5Z" fill="#D94A4A"/>
</svg>