<svg width="16" height="16" viewBox="0 0 16 16" fill="none" xmlns="http://www.w3.org/2000/svg">
<g clip-path="url(#clip0_5301_17508)">
<path d="M7.99984 15.3332C3.93317 15.3332 0.666504 12.0665 0.666504 7.99984C0.666504 3.93317 3.93317 0.666504 7.99984 0.666504C12.0665 0.666504 15.3332 3.93317 15.3332 7.99984C15.3332 12.0665 12.0665 15.3332 7.99984 15.3332ZM7.99984 1.99984C4.6665 1.99984 1.99984 4.6665 1.99984 7.99984C1.99984 11.3332 4.6665 13.9998 7.99984 13.9998C11.3332 13.9998 13.9998 11.3332 13.9998 7.99984C13.9998 4.6665 11.3332 1.99984 7.99984 1.99984ZM7.99984 11.3332C5.99984 11.3332 4.8665 9.79984 4.79984 9.73317C4.59984 9.4665 4.6665 8.99984 4.93317 8.79984C5.19984 8.59984 5.6665 8.6665 5.8665 8.93317C5.8665 8.93317 6.73317 9.99984 7.99984 9.99984C9.2665 9.99984 10.1332 8.93317 10.1332 8.93317C10.3332 8.6665 10.7998 8.59984 11.0665 8.79984C11.3332 8.99984 11.3998 9.4665 11.1998 9.73317C11.1998 9.73317 9.99984 11.3332 7.99984 11.3332ZM9.99984 6.99984C9.4665 6.99984 8.99984 6.53317 8.99984 5.99984C8.99984 5.4665 9.4665 4.99984 9.99984 4.99984C10.5332 4.99984 10.9998 5.4665 10.9998 5.99984C10.9998 6.53317 10.5332 6.99984 9.99984 6.99984ZM5.99984 6.99984C5.4665 6.99984 4.99984 6.53317 4.99984 5.99984C4.99984 5.4665 5.4665 4.99984 5.99984 4.99984C6.53317 4.99984 6.99984 5.4665 6.99984 5.99984C6.99984 6.53317 6.53317 6.99984 5.99984 6.99984Z" fill="currentColor"/>
</g>
<defs>
<clipPath id="clip0_5301_17508">
<rect width="16" height="16" fill="currentColor"/>
</clipPath>
</defs>
</svg>
