<svg width="16" height="16" viewBox="0 0 16 16" fill="none" xmlns="http://www.w3.org/2000/svg">
<path fill-rule="evenodd" clip-rule="evenodd" d="M7.99509 2.47794C6.43515 1.11468 4.12818 0.835709 2.33665 2.36644C0.398786 4.02219 0.117233 6.81072 1.64965 8.78263C2.23133 9.53113 3.36666 10.6557 4.45773 11.6855C5.56158 12.7274 6.66288 13.7119 7.20599 14.1929L7.21633 14.2021C7.26739 14.2473 7.33096 14.3037 7.39191 14.3496C7.46487 14.4045 7.56961 14.4727 7.70947 14.5145C7.89542 14.5699 8.09528 14.5699 8.28123 14.5145C8.42109 14.4727 8.52583 14.4045 8.59879 14.3496C8.65974 14.3037 8.72331 14.2473 8.77437 14.2021L8.78471 14.1929C9.32782 13.7119 10.4291 12.7274 11.533 11.6855C12.624 10.6557 13.7594 9.53113 14.3411 8.78263C15.8676 6.8183 15.6295 4.00825 13.6471 2.36059C11.8356 0.854973 9.55327 1.11416 7.99509 2.47794ZM7.48873 3.85716C6.35203 2.52825 4.54517 2.23317 3.20278 3.38014C1.80057 4.57822 1.61189 6.56114 2.70245 7.96447C3.21118 8.6191 4.27104 9.67581 5.37294 10.7159C6.40164 11.6868 7.43063 12.6096 7.99535 13.1109C8.56007 12.6096 9.58906 11.6868 10.6178 10.7159C11.7197 9.67581 12.7795 8.6191 13.2882 7.96447C14.3847 6.55356 14.2099 4.56213 12.7949 3.38599C11.4169 2.2407 9.63365 2.53413 8.50196 3.85716C8.37531 4.00524 8.1902 4.09049 7.99535 4.09049C7.80049 4.09049 7.61539 4.00524 7.48873 3.85716Z" fill="currentColor"/>
</svg>
