<svg width="36" height="36" viewBox="0 0 128 128" fill="none" xmlns="http://www.w3.org/2000/svg">
<rect width="128" height="128" fill="#1e1e1e"/>
<path d="M65.3913 24H37.5652C34.4916 24 32 26.4916 32 29.5652V40.6957C32 43.7692 34.4916 46.2609 37.5652 46.2609H65.3913C68.4649 46.2609 70.9565 43.7692 70.9565 40.6957V29.5652C70.9565 26.4916 68.4649 24 65.3913 24Z" fill="white"/>
<path d="M37.5652 104.696C34.5043 104.696 32 102.191 32 99.1304V65.7391C32 62.6782 34.5043 60.1739 37.5652 60.1739H90.4348C93.4957 60.1739 96 62.6782 96 65.7391V76.8695C96 79.9304 93.4957 82.4348 90.4348 82.4348H54.2609V99.1304C54.2609 102.191 51.7565 104.696 48.6957 104.696H37.5652Z" fill="white"/>
<path d="M83.4782 29.5652L85.5652 35.8261L91.826 37.913L85.5652 40L83.4782 46.2608L81.3912 40L75.1304 37.913L81.3912 35.8261L83.4782 29.5652Z" fill="white"/>
<path d="M92.522 24L93.3846 26.6157L96.0002 27.4783L93.3846 28.3409L92.522 30.9565L91.6594 28.3409L89.0437 27.4783L91.6594 26.6157L92.522 24Z" fill="white"/>
</svg>
