<svg xmlns="http://www.w3.org/2000/svg" width="24" height="24" viewBox="0 0 24 24" fill="none">
  <path d="M6.29405 4.835L4.16505 17.671C3.98505 18.752 3.89605 19.293 4.19505 19.646C4.49205 20 5.03705 20 6.12805 20H6.53005C7.35305 20 7.76405 20 8.04505 19.756C8.32505 19.511 8.38405 19.102 8.50005 18.283L8.96805 14.993C9.00505 14.733 9.02305 14.603 9.05205 14.492C9.15254 14.103 9.36843 13.7535 9.67133 13.4895C9.97423 13.2255 10.3499 13.0594 10.7491 13.013C10.8621 13 10.9931 13 11.2541 13H12.4161C13.9221 12.9974 15.3824 12.4825 16.5571 11.5401C17.7318 10.5976 18.551 9.28363 18.8801 7.814C19.5541 4.836 17.3021 2 14.2631 2H9.62305C8.50905 2 7.95305 2 7.51305 2.235C7.26305 2.369 7.04305 2.555 6.87105 2.782C6.56805 3.179 6.47705 3.731 6.29405 4.835Z" stroke="black" stroke-width="1.5" stroke-linecap="round" stroke-linejoin="round"/>
  <path d="M8.24308 19.5L8.01508 20.832C7.91008 21.442 8.38508 22 9.01108 22H11.0011C11.4961 22 11.9181 21.646 11.9991 21.164L12.7291 16.835C12.8091 16.353 13.2321 16 13.7261 16H15.5291C18.1101 16 20.3451 14.227 20.9051 11.735C21.2971 9.99 20.4441 8.31 19.0001 7.5" stroke="black" stroke-width="1.5" stroke-linecap="round" stroke-linejoin="round"/>
</svg>