<svg xmlns="http://www.w3.org/2000/svg" width="20" height="24" viewBox="0 0 20 24" fill="none">
  <g clip-path="url(#clip0_9079_49899)">
    <path d="M16.9674 1.86771C15.8788 0.605566 13.911 0.0644531 11.3936 0.0644531H4.08735C3.83826 0.064414 3.59733 0.154788 3.4079 0.319318C3.21848 0.483849 3.09298 0.711736 3.05399 0.96199L0.0118008 20.5885C-0.048668 20.9755 0.245941 21.326 0.631566 21.326H5.14219L6.275 14.017L6.23985 14.2459C6.32055 13.7293 6.75493 13.3482 7.2693 13.3482H9.41274C13.6235 13.3482 16.9206 11.6085 17.8838 6.57569C17.9123 6.42684 17.9371 6.28196 17.9585 6.14043C17.837 6.07494 17.837 6.07494 17.9585 6.14043C18.2453 4.28027 17.9566 3.01407 16.9674 1.86771Z" fill="#27346A"/>
    <path d="M8.00094 5.47033C8.12422 5.41051 8.25912 5.37955 8.39571 5.37974H14.1237C14.802 5.37974 15.4346 5.42464 16.0127 5.51929C16.1745 5.54555 16.3354 5.57687 16.4953 5.61322C16.7219 5.66409 16.9459 5.72634 17.1664 5.79974C17.4506 5.89629 17.7153 6.00874 17.9586 6.14043C18.2453 4.27955 17.9566 3.01407 16.9674 1.86771C15.8782 0.605566 13.911 0.0644531 11.3936 0.0644531H4.08672C3.57227 0.0644531 3.13461 0.445433 3.05399 0.96199L0.0118012 20.5878C-0.0486675 20.9754 0.245942 21.3254 0.630942 21.3254H5.14219L7.49243 6.1649C7.51555 6.01589 7.57392 5.87483 7.6625 5.75384C7.75108 5.63285 7.86722 5.53556 8.00094 5.47033Z" fill="#27346A"/>
    <path d="M17.8842 6.57588C16.9211 11.6079 13.624 13.3484 9.41318 13.3484H7.26912C6.75474 13.3484 6.32029 13.7295 6.24037 14.2461L4.83107 23.3339C4.77842 23.6726 5.03592 23.9795 5.37279 23.9795H9.17513C9.39294 23.9795 9.60359 23.9004 9.76918 23.7564C9.93478 23.6125 10.0445 23.4132 10.0785 23.1944L10.1155 22.9973L10.8322 18.3772L10.8783 18.1219C10.9124 17.903 11.022 17.7037 11.1876 17.5598C11.3532 17.4159 11.5638 17.3368 11.7816 17.3367H12.3507C16.034 17.3367 18.9182 15.8145 19.761 11.4122C20.1128 9.57247 19.9308 8.03647 19.0001 6.95758C18.7179 6.6308 18.3673 6.36092 17.959 6.14062C17.9369 6.28288 17.9129 6.42704 17.8842 6.57588Z" fill="#2790C3"/>
    <path d="M16.9484 5.73186C16.7982 5.68725 16.6466 5.64776 16.4938 5.61345C16.3339 5.57768 16.173 5.54656 16.0113 5.52015C15.4325 5.42486 14.8003 5.37988 14.1214 5.37988H8.39414C8.25747 5.37965 8.12251 5.41087 7.99937 5.4712C7.86548 5.53619 7.74918 5.63341 7.66056 5.75444C7.57194 5.87547 7.51366 6.01666 7.49078 6.16576L6.27344 14.0173L6.23828 14.2461C6.31836 13.7295 6.75273 13.3484 7.26719 13.3484H9.41125C13.622 13.3484 16.9191 11.6087 17.8822 6.57591C17.9109 6.42706 17.9349 6.28282 17.957 6.14065C17.7132 6.00979 17.4491 5.89644 17.1648 5.8006C17.0931 5.7764 17.021 5.75349 16.9484 5.73186" fill="#1F264F"/>
  </g>
  <defs>
    <clipPath id="clip0_9079_49899">
      <rect width="20" height="24" fill="white"/>
    </clipPath>
  </defs>
</svg>