<svg width="18" height="18" viewBox="0 0 18 18" fill="none" xmlns="http://www.w3.org/2000/svg">
<path d="M9 18C13.9706 18 18 13.9706 18 9C18 4.02944 13.9706 0 9 0C4.02944 0 0 4.02944 0 9C0 13.9706 4.02944 18 9 18Z" fill="#007CBA"/>
<path fill-rule="evenodd" clip-rule="evenodd" d="M9.00056 4.71387C9.29643 4.71387 9.53627 4.95371 9.53627 5.24958V8.46387H12.7506C13.0464 8.46387 13.2863 8.70372 13.2863 8.99958C13.2863 9.29545 13.0464 9.5353 12.7506 9.5353H9.53627V12.7496C9.53627 13.0455 9.29643 13.2853 9.00056 13.2853C8.70469 13.2853 8.46484 13.0455 8.46484 12.7496V9.5353H5.25056C4.95469 9.5353 4.71484 9.29545 4.71484 8.99958C4.71484 8.70372 4.95469 8.46387 5.25056 8.46387H8.46484V5.24958C8.46484 4.95371 8.70469 4.71387 9.00056 4.71387Z" fill="white"/>
</svg>
