<svg width="17" height="14" classname="formgent-range" viewBox="0 0 17 14" fill="none" xmlns="http://www.w3.org/2000/svg">
<path fill-rule="evenodd" clip-rule="evenodd" d="M7.434 1.75H16.3333V3.5H7.434C7.07362 4.51954 6.10132 5.25 4.95833 5.25C3.8154 5.25 2.84306 4.51954 2.4827 3.5H0V1.75H2.4827C2.84306 0.730462 3.8154 0 4.95833 0C6.10132 0 7.07362 0.730462 7.434 1.75ZM13.8507 10.5H16.3333V12.25H13.8507C13.4903 13.2695 12.518 14 11.375 14C10.232 14 9.25972 13.2695 8.89933 12.25H0V10.5H8.89933C9.25972 9.48045 10.232 8.75 11.375 8.75C12.518 8.75 13.4903 9.48045 13.8507 10.5Z" fill="#1E1E1E"/>
</svg>
