<svg xmlns="http://www.w3.org/2000/svg" width="44" height="42" viewBox="0 0 44 42" fill="none">
  <path d="M0.591474 32.6939C0.411184 32.7197 0.248484 32.816 0.139086 32.9616C0.029687 33.1072 -0.0174719 33.2902 0.00795978 33.4706C0.0333914 33.6509 0.129336 33.8138 0.274734 33.9235C0.420132 34.0331 0.603104 34.0806 0.783489 34.0555C2.22309 33.8435 3.69299 34.0022 5.05412 34.5168C3.93559 36.2421 3.08933 38.2587 3.9522 40.0088C4.17229 40.4764 4.51683 40.8744 4.94807 41.1591C5.3793 41.4439 5.8806 41.6044 6.39704 41.6232C6.43111 41.6244 6.46501 41.6249 6.49909 41.6249C7.0275 41.6199 7.54538 41.4765 8.00105 41.2089C8.45672 40.9413 8.83425 40.5589 9.09597 40.0998C10.3187 38.0052 8.96891 35.4373 7.06488 34.0564C7.34837 33.6809 7.6223 33.3371 7.85812 33.0412L8.11004 32.7241C9.92075 30.4323 11.4689 29.2634 12.7117 29.2498C12.7189 29.2496 12.7259 29.2496 12.733 29.2496C13.9967 29.2496 15.0145 30.4815 15.9989 31.6729C17.3274 33.2806 18.9806 35.2813 21.3958 33.5347C25.7383 30.3938 30.6721 31.9491 30.7215 31.965C30.8614 32.0077 31.0112 32.0061 31.1502 31.9604C31.2892 31.9147 31.4107 31.8271 31.498 31.7097L34.1103 28.022C34.978 26.7704 35.6773 25.4101 36.1902 23.9761L36.8933 22.0126C37.0129 21.9934 37.1251 21.9427 37.2185 21.8657C37.3119 21.7887 37.3831 21.6882 37.4247 21.5745L43.8815 3.54277C43.9724 3.29116 44.0116 3.0238 43.9968 2.75669C43.9821 2.48957 43.9135 2.22818 43.7954 1.98815C43.6733 1.73815 43.5021 1.51534 43.292 1.33304C43.0818 1.15074 42.8371 1.0127 42.5723 0.927172L41.2328 0.483363C40.7113 0.308419 40.1423 0.342558 39.6454 0.578597C39.1486 0.814637 38.7627 1.23417 38.5689 1.74895L32.1121 19.7806C32.0694 19.8952 32.059 20.0193 32.0821 20.1394C32.1051 20.2596 32.1607 20.371 32.2428 20.4617L31.5473 22.4039C31.0351 23.8295 30.715 25.317 30.5955 26.8271L30.3147 30.4448C28.5755 30.0811 24.4359 29.6387 20.5901 32.4205C19.3373 33.3262 18.627 32.6948 17.0588 30.7971C15.919 29.4174 14.6165 27.8461 12.6967 27.8748C10.9708 27.8938 9.17066 29.1637 7.03114 31.8718L6.7829 32.1842C6.50077 32.538 6.18421 32.9353 5.86278 33.3647C4.20197 32.6562 2.37677 32.424 0.591474 32.6939ZM39.8633 2.21241C39.9345 2.03434 40.0718 1.89075 40.2466 1.81176C40.4213 1.73277 40.6198 1.72452 40.8005 1.78874L42.1401 2.23238C42.2305 2.26092 42.3143 2.30737 42.3863 2.36897C42.4584 2.43057 42.5173 2.50605 42.5596 2.59091C42.5967 2.66631 42.6183 2.74842 42.623 2.83235C42.6278 2.91627 42.6155 3.00029 42.5871 3.07938L42.0062 4.70166L39.2936 3.80354L39.8633 2.21241ZM38.8299 5.09824L41.5425 5.99636L36.3565 20.4792L33.644 19.581L38.8299 5.09824ZM31.9664 26.9337C32.0763 25.5454 32.3707 24.178 32.8417 22.8675L33.5152 20.9868L35.558 21.6631L34.8958 23.5125C34.4244 24.8309 33.7818 26.0817 32.9845 27.2326L31.815 28.8834L31.9664 26.9337ZM7.90865 39.4066C7.7621 39.6648 7.54914 39.879 7.29188 40.0272C7.03461 40.1753 6.7424 40.2519 6.44555 40.249C6.17741 40.2389 5.91743 40.1541 5.69483 40.0043C5.47224 39.8545 5.29586 39.6455 5.18554 39.4009C4.60278 38.2187 5.33625 36.603 6.26981 35.1785C7.48349 36.0677 8.76867 37.9332 7.90865 39.4066Z" fill="#D2D6DB"/>
</svg>