<svg xmlns="http://www.w3.org/2000/svg" xmlns:xlink="http://www.w3.org/1999/xlink" version="1.1" id="Layer_1" x="0px" y="0px" viewBox="0 0 29 30" style="enable-background:new 0 0 31 30;" xml:space="preserve">
<style type="text/css">
	.st0{fill:#141414;}
	.st1{fill:#929497;}
</style>
<g>
	<path id="Path_5632" class="st0" d="M12.7,0L12.7,0c-4.6,0-8.9,2-12,5.4c3.8,0,7.6,0,11.4,0c1.5,0,2.8,1.2,2.9,2.8l0,0   c0,1.6-1.2,2.9-2.8,3h-0.1h-1.6c-3.3,0-3.7,0-7,0c-1.3-0.1-2.5,0.7-3.1,1.9c-0.6,1.1-0.4,2.4,0.4,3.4c0.7,0.9,1.8,1.4,2.9,1.3   c4,0,5.1,0,9.2,0c3.3-0.1,6.4,1.8,7.9,4.7c1.2,2.1,1.5,4.6,0.7,6.9c4.5-2.9,7.3-8,7.3-13.4l0,0C28.7,7.1,21.5,0,12.7,0z"/>
	<path class="st1" d="M12.7,30H3.2C1.4,30,0,28.6,0,26.8l0,0c0-1.8,1.4-3.2,3.2-3.2h9.4c1.8,0,3.2,1.4,3.2,3.2l0,0   C15.9,28.6,14.4,30,12.7,30z"/>
</g>
</svg>