<svg xmlns="http://www.w3.org/2000/svg" width="21" height="20" viewBox="0 0 24 24" fill="none">
  <path fill-rule="evenodd" clip-rule="evenodd" d="M11.3545 1.77542C11.7628 1.58072 12.2372 1.58072 12.6456 1.77542C12.9986 1.94374 13.1932 2.23597 13.2914 2.39629C13.3929 2.56204 13.497 2.77317 13.5986 2.97897C13.6037 2.98948 13.6089 2.99997 13.6141 3.01045L15.7543 7.34623L20.5763 8.05104C20.8033 8.08417 21.0362 8.11817 21.2252 8.1636C21.4079 8.20755 21.7458 8.3026 22.0147 8.58644C22.3258 8.9148 22.4721 9.36602 22.4129 9.81445C22.3617 10.2021 22.1439 10.4773 22.0217 10.6202C21.8954 10.7678 21.7267 10.932 21.5624 11.092L18.0745 14.4891L18.8975 19.2874C18.9364 19.5136 18.9762 19.7457 18.9916 19.9395C19.0064 20.1269 19.0207 20.4778 18.834 20.8216C18.6181 21.2191 18.2342 21.498 17.7893 21.5805C17.4047 21.6518 17.0755 21.5297 16.9018 21.4576C16.7223 21.3831 16.5138 21.2734 16.3107 21.1666L12 18.8996L7.68936 21.1666C7.4862 21.2735 7.27778 21.3831 7.09823 21.4576C6.9246 21.5297 6.59531 21.6518 6.21071 21.5805C5.76584 21.498 5.38196 21.2191 5.16601 20.8216C4.97931 20.4778 4.99365 20.1269 5.00849 19.9395C5.02383 19.7457 5.06369 19.5136 5.10254 19.2874L5.9255 14.4891L2.46283 11.1165C2.45448 11.1084 2.4461 11.1002 2.43771 11.092C2.27335 10.932 2.10469 10.7678 1.97838 10.6202C1.85618 10.4773 1.63833 10.2021 1.58714 9.81445C1.52792 9.36602 1.67422 8.9148 1.98531 8.58644C2.25423 8.3026 2.59214 8.20755 2.7749 8.1636C2.96382 8.11817 3.19673 8.08417 3.42372 8.05104C3.43531 8.04935 3.44688 8.04766 3.45842 8.04598L8.24576 7.34623L10.386 3.01045C10.3911 2.99997 10.3963 2.98948 10.4015 2.97897C10.503 2.77317 10.6072 2.56204 10.7087 2.3963C10.8068 2.23597 11.0014 1.94374 11.3545 1.77542ZM8.14235 7.55329C8.14221 7.55354 8.14221 7.55353 8.14235 7.55329V7.55329ZM8.4746 7.31169C8.47487 7.31164 8.47488 7.31163 8.4746 7.31169V7.31169ZM18.0364 14.2605C18.0364 14.2602 18.0364 14.2602 18.0364 14.2605V14.2605ZM12 4.25902L9.99269 8.32566C9.98885 8.33344 9.98448 8.34249 9.97956 8.35268C9.93191 8.45133 9.83325 8.65559 9.67679 8.82399C9.54472 8.96614 9.38633 9.08131 9.21039 9.16313C9.00195 9.26006 8.77722 9.29094 8.66869 9.30585C8.65749 9.30739 8.64753 9.30876 8.63895 9.31002L4.14844 9.96637L7.39633 13.1298C7.40255 13.1359 7.40982 13.1428 7.418 13.1507C7.49724 13.2265 7.66134 13.3836 7.77331 13.5848C7.86783 13.7545 7.92847 13.941 7.95186 14.1339C7.97956 14.3624 7.93924 14.586 7.91977 14.6939C7.91776 14.7051 7.91597 14.715 7.9145 14.7235L7.1482 19.1914L11.1622 17.0805C11.1699 17.0765 11.1788 17.0717 11.1887 17.0664C11.2854 17.0145 11.4855 16.907 11.7114 16.8627C11.902 16.8253 12.0981 16.8253 12.2887 16.8627C12.5145 16.907 12.7147 17.0145 12.8113 17.0664C12.8213 17.0717 12.8302 17.0765 12.8378 17.0805L16.8518 19.1914L16.0855 14.7235C16.0841 14.715 16.0823 14.7051 16.0803 14.6939C16.0608 14.586 16.0205 14.3624 16.0482 14.1339C16.0716 13.941 16.1322 13.7545 16.2267 13.5848C16.3387 13.3836 16.5028 13.2265 16.582 13.1507C16.5902 13.1428 16.5975 13.1359 16.6037 13.1298L19.8516 9.96637L15.3611 9.31002C15.3525 9.30876 15.3426 9.30739 15.3314 9.30585C15.2228 9.29094 14.9981 9.26006 14.7897 9.16313C14.6137 9.08131 14.4553 8.96614 14.3233 8.82399C14.1668 8.65559 14.0681 8.45133 14.0205 8.35268C14.0156 8.3425 14.0112 8.33344 14.0074 8.32566L12 4.25902Z" fill="currentColor"/>
</svg>