<svg xmlns="http://www.w3.org/2000/svg" width="24" height="16" viewBox="0 0 24 16" fill="none">
  <g clip-path="url(#clip0_9083_49931)">
    <path d="M16.6354 8.07292C16.6354 8.55208 16.5625 8.92014 16.4167 9.17708C16.2847 9.42014 16.1042 9.54167 15.875 9.54167C15.7153 9.54167 15.5729 9.51042 15.4479 9.44792V7.11458C15.6493 6.90625 15.8472 6.80208 16.0417 6.80208C16.4375 6.80208 16.6354 7.22569 16.6354 8.07292ZM21.1979 7.69792H20.0521C20.0938 7.01736 20.2882 6.67708 20.6354 6.67708C20.9896 6.67708 21.1771 7.01736 21.1979 7.69792ZM4.95833 9.10417C4.95833 8.69444 4.84375 8.37674 4.61458 8.15104C4.38542 7.92535 4.03472 7.72569 3.5625 7.55208C3.3125 7.46181 3.13194 7.37847 3.02083 7.30208C2.90972 7.22569 2.85417 7.13889 2.85417 7.04167C2.85417 6.86111 2.98611 6.77083 3.25 6.77083C3.65278 6.77083 4.08333 6.88542 4.54167 7.11458L4.72917 5.94792C4.26389 5.72569 3.74653 5.61458 3.17708 5.61458C2.64236 5.61458 2.21528 5.74653 1.89583 6.01042C1.5625 6.28125 1.39583 6.65972 1.39583 7.14583C1.39583 7.54861 1.50868 7.86285 1.73438 8.08854C1.96007 8.31424 2.30556 8.51042 2.77083 8.67708C3.04167 8.77431 3.2309 8.86285 3.33854 8.94271C3.44618 9.02257 3.5 9.11806 3.5 9.22917C3.5 9.44444 3.33333 9.55208 3 9.55208C2.79861 9.55208 2.55556 9.50868 2.27083 9.42188C1.98611 9.33507 1.73611 9.22917 1.52083 9.10417L1.33333 10.2812C1.83333 10.566 2.41667 10.7083 3.08333 10.7083C3.64583 10.7083 4.09375 10.5799 4.42708 10.3229C4.78125 10.0382 4.95833 9.63194 4.95833 9.10417ZM8.03125 6.86458L8.22917 5.70833H7.22917V4.30208L5.88542 4.52083L5.69792 5.70833L5.21875 5.79167L5.04167 6.86458H5.6875V9.14583C5.6875 9.72917 5.84028 10.1458 6.14583 10.3958C6.40972 10.6042 6.79514 10.7083 7.30208 10.7083C7.52431 10.7083 7.79861 10.6701 8.125 10.5938V9.36458C7.90278 9.41319 7.75 9.4375 7.66667 9.4375C7.375 9.4375 7.22917 9.26389 7.22917 8.91667V6.86458H8.03125ZM11.3229 7.125V5.67708C11.2188 5.65625 11.1215 5.64583 11.0312 5.64583C10.809 5.64583 10.6163 5.70139 10.4531 5.8125C10.2899 5.92361 10.1736 6.08333 10.1042 6.29167L10 5.70833H8.63542V10.6146H10.1979V7.42708C10.3785 7.21181 10.6632 7.10417 11.0521 7.10417C11.1632 7.10417 11.2535 7.11111 11.3229 7.125ZM11.7083 10.6146H13.2708V5.70833H11.7083V10.6146ZM18.1875 8.02083C18.1875 7.17361 18.0312 6.55208 17.7188 6.15625C17.441 5.79514 17.0556 5.61458 16.5625 5.61458C16.1181 5.61458 15.7118 5.80903 15.3438 6.19792L15.2604 5.70833H13.8854V12.4271L15.4479 12.1667V10.5938C15.6979 10.6701 15.934 10.7083 16.1562 10.7083C16.7326 10.7083 17.1979 10.5139 17.5521 10.125C17.9757 9.67361 18.1875 8.97222 18.1875 8.02083ZM13.3125 4.39583C13.3125 4.16667 13.2326 3.97222 13.0729 3.8125C12.9132 3.65278 12.7188 3.57292 12.4896 3.57292C12.2604 3.57292 12.066 3.65278 11.9062 3.8125C11.7465 3.97222 11.6667 4.16667 11.6667 4.39583C11.6667 4.625 11.7465 4.82118 11.9062 4.98438C12.066 5.14757 12.2604 5.22917 12.4896 5.22917C12.7188 5.22917 12.9132 5.14757 13.0729 4.98438C13.2326 4.82118 13.3125 4.625 13.3125 4.39583ZM22.6667 8.11458C22.6667 7.32986 22.5 6.71875 22.1667 6.28125C21.8194 5.83681 21.3194 5.61458 20.6667 5.61458C20 5.61458 19.474 5.84375 19.0885 6.30208C18.7031 6.76042 18.5104 7.38542 18.5104 8.17708C18.5104 9.06597 18.7292 9.71875 19.1667 10.1354C19.5486 10.5174 20.1076 10.7083 20.8438 10.7083C21.5451 10.7083 22.1007 10.5694 22.5104 10.2917L22.3438 9.21875C21.9479 9.43403 21.5035 9.54167 21.0104 9.54167C20.7118 9.54167 20.4931 9.47569 20.3542 9.34375C20.1944 9.21181 20.0972 8.98264 20.0625 8.65625H22.6458C22.6597 8.55903 22.6667 8.37847 22.6667 8.11458ZM24 1.33333V14.6667C24 15.0278 23.8681 15.3403 23.6042 15.6042C23.3403 15.8681 23.0278 16 22.6667 16H1.33333C0.972222 16 0.659722 15.8681 0.395833 15.6042C0.131944 15.3403 0 15.0278 0 14.6667V1.33333C0 0.972222 0.131944 0.659722 0.395833 0.395833C0.659722 0.131944 0.972222 0 1.33333 0H22.6667C23.0278 0 23.3403 0.131944 23.6042 0.395833C23.8681 0.659722 24 0.972222 24 1.33333Z" fill="#0288D1"/>
  </g>
  <defs>
    <clipPath id="clip0_9083_49931">
      <rect width="24" height="16" fill="white"/>
    </clipPath>
  </defs>
</svg>