<svg width="24" height="22" viewBox="0 0 24 22" fill="none" xmlns="http://www.w3.org/2000/svg">
<path d="M14.3507 0.21052C15.2009 0.20138 16.0053 1.07962 16.5626 1.70608C17.8713 3.31412 17.1491 5.09608 16.8614 7.04672H22.8305C23.6374 7.05274 24.051 7.65952 23.995 8.47934L22.3236 18.8355C21.9449 20.1598 20.4727 21.3256 18.9209 21.4912H7.8792C7.22602 21.4827 6.7366 21.019 6.68538 20.2974V8.24056C6.69386 7.58748 7.15752 7.09796 7.8792 7.04678H10.6242L13.34 0.95902C13.491 0.63046 13.8869 0.21794 14.3507 0.21052ZM4.3578 6.808C4.81722 6.81386 5.18348 7.1315 5.222 7.64438V20.9551C5.21534 21.4046 4.84276 21.7548 4.3578 21.79H0.86572C0.42262 21.7839 0.04172 21.4481 0 20.9551V7.6444C0.00632 7.18 0.35952 6.8432 0.86572 6.80802L4.3578 6.808Z" fill="currentColor"/>
</svg>
