<svg width="14" height="14" viewBox="0 0 14 14" fill="none" xmlns="http://www.w3.org/2000/svg">
<path fill-rule="evenodd" clip-rule="evenodd" d="M0.333252 1.00016C0.333252 0.631973 0.631729 0.333496 0.999919 0.333496H12.9999C13.3681 0.333496 13.6666 0.631973 13.6666 1.00016C13.6666 1.36835 13.3681 1.66683 12.9999 1.66683H0.999919C0.631729 1.66683 0.333252 1.36835 0.333252 1.00016ZM6.99992 3.00016C7.17673 3.00016 7.3463 3.0704 7.47132 3.19542L11.4713 7.19543C11.7317 7.45577 11.7317 7.87788 11.4713 8.13823C11.211 8.39858 10.7889 8.39858 10.5285 8.13823L7.66659 5.27631V13.0002C7.66659 13.3684 7.36811 13.6668 6.99992 13.6668C6.63173 13.6668 6.33325 13.3684 6.33325 13.0002V5.27631L3.47132 8.13823C3.21097 8.39858 2.78886 8.39858 2.52851 8.13823C2.26816 7.87788 2.26816 7.45577 2.52851 7.19543L6.52851 3.19542C6.65354 3.0704 6.82311 3.00016 6.99992 3.00016Z" fill="currentColor"/>
</svg>
