<svg width="800" height="514" viewBox="0 0 800 514" fill="none" xmlns="http://www.w3.org/2000/svg">
<path d="M41.0256 1H758.974C781.633 1 800 19.3682 800 42.0256V472.795C800 495.453 781.633 513.821 758.974 513.821H41.0256C18.3682 513.821 0 495.453 0 472.795V42.0256C0 19.3682 18.3682 1 41.0256 1Z" fill="#0E4595"/>
<path d="M300.721 358.261L334.938 157.482H389.666L355.425 358.261H300.721ZM553.142 161.81C542.301 157.742 525.309 153.377 504.094 153.377C450.017 153.377 411.924 180.608 411.601 219.636C411.295 248.488 438.795 264.582 459.552 274.186C480.856 284.027 488.016 290.303 487.915 299.092C487.781 312.549 470.904 318.698 455.175 318.698C433.27 318.698 421.633 315.655 403.66 308.159L396.607 304.969L388.926 349.915C401.709 355.52 425.347 360.375 449.888 360.626C507.417 360.626 544.76 333.707 545.187 292.029C545.391 269.189 530.812 251.808 499.237 237.477C480.109 228.19 468.394 221.991 468.518 212.587C468.518 204.242 478.434 195.316 499.859 195.316C517.755 195.04 530.72 198.942 540.821 203.009L545.724 205.327L553.142 161.81ZM693.973 157.478H651.683C638.583 157.478 628.779 161.055 623.026 174.129L541.75 358.129H599.218C599.218 358.129 608.613 333.387 610.738 327.956C617.02 327.956 672.845 328.043 680.828 328.043C682.465 335.071 687.484 358.129 687.484 358.129H738.268L693.973 157.472V157.478ZM626.877 287.13C631.402 275.562 648.682 231.004 648.682 231.004C648.358 231.539 653.174 219.379 655.938 211.841L659.635 229.152C659.635 229.152 670.116 277.08 672.306 287.13H626.877ZM254.262 157.478L200.682 294.402L194.973 266.576C184.998 234.501 153.921 199.75 119.18 182.352L168.17 357.942L226.074 357.876L312.232 157.476H254.262" fill="white"/>
<path d="M150.688 157.471H62.4406L61.7422 161.648C130.397 178.268 175.824 218.431 194.686 266.684L175.496 174.418C172.183 161.705 162.576 157.911 150.69 157.467" fill="#F2AE14"/>
</svg>
